<svg width="28" height="24" viewBox="0 0 28 24" fill="none" xmlns="http://www.w3.org/2000/svg">
<path d="M15.7711 15.3597C15.7711 16.3761 14.8912 17.0113 14.1118 17.0113C13.3324 17.0113 12.3974 16.6955 12.3974 15.3597V14.7101H11.3707V15.3597C11.3707 16.839 12.6008 18.0422 14.1118 18.0422C15.6228 18.0422 16.853 16.839 16.853 15.3597V14.7101H15.7711V15.3597Z" fill="#130B43"/>
<path d="M7.14791 12.2226C7.14791 11.2519 7.98972 10.4626 9.02398 10.4626C10.0576 10.4626 10.8994 11.2526 10.8994 12.2226H12.0811C12.0811 10.64 10.7104 9.35297 9.02398 9.35297C7.33759 9.35297 5.96619 10.64 5.96619 12.2226H7.14791Z" fill="#130B43"/>
<path d="M16.8859 12.2226C16.8859 11.2519 17.7277 10.4626 18.7613 10.4626C19.7956 10.4626 20.6374 11.2526 20.6374 12.2226H21.8191C21.8191 10.64 20.4477 9.35297 18.7613 9.35297C17.0749 9.35297 15.7042 10.64 15.7042 12.2226H16.8859Z" fill="#130B43"/>
<path fill-rule="evenodd" clip-rule="evenodd" d="M23.7258 8.45799V4.64365C23.7258 3.35822 23.5695 2.46635 23.257 1.96801C22.9445 1.46968 22.2938 1.08545 21.3048 0.815328C21.0063 0.731496 20.857 0.596435 20.857 0.410141C20.857 0.158644 21.1929 0.0328979 21.8646 0.0328979H22.8862C23.9964 0.0328979 24.8383 0.377536 25.4121 1.06682C25.9858 1.75611 26.2727 2.76208 26.2727 4.08477V8.10869C26.2727 9.04016 26.373 9.75738 26.5736 10.2604C26.7742 10.7634 27.145 11.2338 27.6861 11.6715C27.8447 11.8019 27.924 11.9091 27.924 11.9929C27.924 12.0767 27.8447 12.1838 27.6861 12.3143C27.1357 12.7614 26.7625 13.2341 26.5666 13.7324C26.3707 14.2307 26.2727 14.9456 26.2727 15.8771V19.8871C26.2727 21.2191 25.9835 22.2297 25.4051 22.919C24.8267 23.6083 23.987 23.9529 22.8862 23.9529H21.8646C21.4261 23.9529 21.1486 23.9319 21.032 23.89C20.9153 23.8481 20.857 23.7433 20.857 23.5757C20.857 23.3428 21.011 23.1891 21.3188 23.1146L21.8786 22.9888C23.1101 22.7094 23.7258 21.4938 23.7258 19.3422V15.5278C23.7258 14.084 24.0756 13.0641 24.7754 12.4679L25.0412 12.2444C25.1718 12.1326 25.2372 12.0488 25.2372 11.9929C25.2372 11.9277 25.1718 11.8439 25.0412 11.7414L24.7754 11.5179C24.0756 10.9217 23.7258 9.90177 23.7258 8.45799Z" fill="#130B43"/>
<path fill-rule="evenodd" clip-rule="evenodd" d="M4.32321 8.42509V4.61075C4.32321 3.32532 4.47948 2.43345 4.79201 1.93512C5.10455 1.43678 5.75526 1.05256 6.74418 0.78243C7.04272 0.698598 7.19199 0.563537 7.19199 0.377243C7.19199 0.125746 6.85613 0 6.18442 0H5.16285C4.05266 0 3.21069 0.344638 2.63693 1.03393C2.06318 1.72321 1.7763 2.72918 1.7763 4.05187V8.0758C1.7763 9.00726 1.67601 9.72448 1.47543 10.2275C1.27485 10.7305 0.904012 11.2009 0.362907 11.6386C0.204307 11.7691 0.125009 11.8762 0.125009 11.96C0.125009 12.0438 0.204307 12.151 0.362907 12.2814C0.913341 12.7285 1.28651 13.2012 1.48243 13.6995C1.67835 14.1978 1.7763 14.9127 1.7763 15.8442V19.8542C1.7763 21.1862 2.06551 22.1968 2.64393 22.8861C3.22235 23.5754 4.06199 23.92 5.16285 23.92H6.18442C6.6229 23.92 6.90044 23.899 7.01706 23.8571C7.13368 23.8152 7.19199 23.7104 7.19199 23.5428C7.19199 23.3099 7.03805 23.1562 6.73018 23.0817L6.17042 22.9559C4.93894 22.6765 4.32321 21.4609 4.32321 19.3093V15.4949C4.32321 14.0511 3.97337 13.0312 3.27366 12.435L3.00778 12.2115C2.87716 12.0997 2.81186 12.0159 2.81186 11.96C2.81186 11.8948 2.87716 11.811 3.00778 11.7085L3.27366 11.485C3.97337 10.8888 4.32321 9.86887 4.32321 8.42509Z" fill="#130B43"/>
</svg>
